  0
SECTION
  2
HEADER
  9
$ACADVER
  1
AC1009
  9
$FILLMODE
 70
0
  9
$EXTMIN
 10
-2.8950
 20
-9.5571
 30
0.0000
  9
$EXTMAX
 10
104.8950
 20
102.6403
 30
0.0000
  0
ENDSEC
  0
SECTION
  2
TABLES
  0
TABLE
  2
LTYPE
 70
1
  0
LTYPE
  2
CONTINUOUS
 70
64
  3
Solid line
 72
65
 73
0
 40
0
  0
ENDTAB
  0
TABLE
  2
LAYER
 70
255
  0
LAYER
  2
106
 70
64
 62
253
  6
CONTINUOUS
  0
ENDTAB
  0
ENDSEC
  0
SECTION
  2
BLOCKS
  0
BLOCK
  8
0
  2
RECT
 70
64
 10
0.0000
 20
0.0000
 30
0.0000
  3
RECT
  0
SOLID
  8
0
 10
-0.5000
 20
-0.5000
 30
0.0000
 11
0.5000
 21
-0.5000
 31
0.0000
 12
-0.5000
 22
0.5000
 32
0.0000
 13
0.5000
 23
0.5000
 33
0.0000
  0
ENDBLK
  8
0
  0
BLOCK
  8
0
  2
PIE
 70
64
 10
0.0000
 20
0.0000
 30
0.0000
  3
PIE
  0
CIRCLE
  8
0
 10
0.0000
 20
0.0000
 30
0.0000
 40
0.5000
  0
ENDBLK
  8
0
  0
BLOCK
  8
0
  2
OCTAGONP
 70
64
 10
0.0000
 20
0.0000
 30
0.0000
  3
OCTAGONP
  0
POLYLINE
  8
0
 66
1
 10
0.0000
 20
0.0000
 30
0.0000
 40
0.0000
 41
0.0000
 70
1
  0
VERTEX
  8
0
 10
-0.5000
 20
-0.2071
 30
0.0000
  0
VERTEX
  8
0
 10
-0.5000
 20
0.2071
 30
0.0000
  0
VERTEX
  8
0
 10
-0.2071
 20
0.5000
 30
0.0000
  0
VERTEX
  8
0
 10
0.2071
 20
0.5000
 30
0.0000
  0
VERTEX
  8
0
 10
0.5000
 20
0.2071
 30
0.0000
  0
VERTEX
  8
0
 10
0.5000
 20
-0.2071
 30
0.0000
  0
VERTEX
  8
0
 10
0.2071
 20
-0.5000
 30
0.0000
  0
VERTEX
  8
0
 10
-0.2071
 20
-0.5000
 30
0.0000
  0
SEQEND
  8
0
  0
ENDBLK
  8
0
  0
BLOCK
  8
0
  2
SQUAREP
 70
64
 10
0.0000
 20
0.0000
 30
0.0000
  3
SQUAREP
  0
SOLID
  8
0
 10
-0.5000
 20
-0.5000
 30
0.0000
 11
0.5000
 21
-0.5000
 31
0.0000
 12
-0.5000
 22
0.5000
 32
0.0000
 13
0.5000
 23
0.5000
 33
0.0000
  0
ENDBLK
  8
0
  0
BLOCK
  8
0
  2
ROUNDP
 70
64
 10
0.0000
 20
0.0000
 30
0.0000
  3
ROUNDP
  0
CIRCLE
  8
0
 10
0.0000
 20
0.0000
 30
0.0000
 40
0.5000
  0
ENDBLK
  8
0
  0
BLOCK
  8
0
  2
ANNULUSP
 70
64
 10
0.0000
 20
0.0000
 30
0.0000
  3
ANNULUSP
  0
CIRCLE
  8
0
 10
0.0000
 20
0.0000
 30
0.0000
 40
0.5000
  0
ENDBLK
  8
0
  0
BLOCK
  8
0
  2
THERMALP
 70
64
 10
0.0000
 20
0.0000
 30
0.0000
  3
THERMALP
  0
LINE
  8
0
 10
-0.2379
 20
0.4500
 30
0.0000
 11
0.2379
 21
0.4500
 31
0.0000
  0
LINE
  8
0
 10
0.4500
 20
0.2379
 30
0.0000
 11
0.4500
 21
-0.2379
 31
0.0000
  0
LINE
  8
0
 10
0.2379
 20
-0.4500
 30
0.0000
 11
-0.2379
 21
-0.4500
 31
0.0000
  0
LINE
  8
0
 10
-0.4500
 20
-0.2379
 30
0.0000
 11
-0.4500
 21
0.2379
 31
0.0000
  0
ENDBLK
  8
0
  0
BLOCK
  8
0
  2
OCTAGONV
 70
64
 10
0.0000
 20
0.0000
 30
0.0000
  3
OCTAGONV
  0
POLYLINE
  8
0
 66
1
 10
0.0000
 20
0.0000
 30
0.0000
 40
0.0000
 41
0.0000
 70
1
  0
VERTEX
  8
0
 10
-0.5000
 20
-0.2071
 30
0.0000
  0
VERTEX
  8
0
 10
-0.5000
 20
0.2071
 30
0.0000
  0
VERTEX
  8
0
 10
-0.2071
 20
0.5000
 30
0.0000
  0
VERTEX
  8
0
 10
0.2071
 20
0.5000
 30
0.0000
  0
VERTEX
  8
0
 10
0.5000
 20
0.2071
 30
0.0000
  0
VERTEX
  8
0
 10
0.5000
 20
-0.2071
 30
0.0000
  0
VERTEX
  8
0
 10
0.2071
 20
-0.5000
 30
0.0000
  0
VERTEX
  8
0
 10
-0.2071
 20
-0.5000
 30
0.0000
  0
SEQEND
  8
0
  0
ENDBLK
  8
0
  0
BLOCK
  8
0
  2
SQUAREV
 70
64
 10
0.0000
 20
0.0000
 30
0.0000
  3
SQUAREV
  0
SOLID
  8
0
 10
-0.5000
 20
-0.5000
 30
0.0000
 11
0.5000
 21
-0.5000
 31
0.0000
 12
-0.5000
 22
0.5000
 32
0.0000
 13
0.5000
 23
0.5000
 33
0.0000
  0
ENDBLK
  8
0
  0
BLOCK
  8
0
  2
ROUNDV
 70
64
 10
0.0000
 20
0.0000
 30
0.0000
  3
ROUNDV
  0
CIRCLE
  8
0
 10
0.0000
 20
0.0000
 30
0.0000
 40
0.5000
  0
ENDBLK
  8
0
  0
BLOCK
  8
0
  2
ANNULUSV
 70
64
 10
0.0000
 20
0.0000
 30
0.0000
  3
ANNULUSV
  0
CIRCLE
  8
0
 10
0.0000
 20
0.0000
 30
0.0000
 40
0.5000
  0
ENDBLK
  8
0
  0
BLOCK
  8
0
  2
THERMALV
 70
64
 10
0.0000
 20
0.0000
 30
0.0000
  3
THERMALV
  0
LINE
  8
0
 10
-0.2379
 20
0.4500
 30
0.0000
 11
0.2379
 21
0.4500
 31
0.0000
  0
LINE
  8
0
 10
0.4500
 20
0.2379
 30
0.0000
 11
0.4500
 21
-0.2379
 31
0.0000
  0
LINE
  8
0
 10
0.2379
 20
-0.4500
 30
0.0000
 11
-0.2379
 21
-0.4500
 31
0.0000
  0
LINE
  8
0
 10
-0.4500
 20
-0.2379
 30
0.0000
 11
-0.4500
 21
0.2379
 31
0.0000
  0
ENDBLK
  8
0
  0
BLOCK
  8
0
  2
LONGP100
 70
64
 10
0.0000
 20
0.0000
 30
0.0000
  3
LONGP100
  0
POLYLINE
  8
0
 66
1
 10
0.0000
 20
0.0000
 30
0.0000
 40
0.0000
 41
0.0000
 70
1
  0
VERTEX
  8
0
 10
-0.5000
 20
-0.5000
 30
0.0000
  0
VERTEX
  8
0
 10
0.5000
 20
-0.5000
 30
0.0000
 42
1.0000
  0
VERTEX
  8
0
 10
0.5000
 20
0.5000
 30
0.0000
  0
VERTEX
  8
0
 10
-0.5000
 20
0.5000
 30
0.0000
 42
1.0000
  0
SEQEND
  8
0
  0
ENDBLK
  8
0
  0
ENDSEC
  0
SECTION
  2
ENTITIES
  0
ARC
  8
106
 10
51.5000
 20
13.0000
 30
0.0000
 40
5.0000
 50
90.0000
 51
180.0000
  0
LINE
  8
106
 10
46.5000
 20
13.0000
 30
0.0000
 11
46.5000
 21
10.0000
 31
0.0000
  0
LINE
  8
106
 10
59.5000
 20
18.0000
 30
0.0000
 11
60.5000
 21
18.0000
 31
0.0000
  0
LINE
  8
106
 10
59.5000
 20
21.0000
 30
0.0000
 11
60.5000
 21
21.0000
 31
0.0000
  0
ARC
  8
106
 10
48.5000
 20
16.0000
 30
0.0000
 40
14.0000
 50
90.0000
 51
180.0000
  0
ARC
  8
106
 10
32.5000
 20
16.0000
 30
0.0000
 40
2.0000
 50
270.0000
 51
0.0000
  0
LINE
  8
106
 10
53.5000
 20
32.0000
 30
0.0000
 11
53.5000
 21
43.0000
 31
0.0000
  0
ARC
  8
106
 10
51.5000
 20
43.0000
 30
0.0000
 40
2.0000
 50
0.0000
 51
90.0000
  0
LINE
  8
106
 10
51.5000
 20
45.0000
 30
0.0000
 11
47.5000
 21
45.0000
 31
0.0000
  0
LINE
  8
106
 10
32.5000
 20
14.0000
 30
0.0000
 11
26.0000
 21
14.0000
 31
0.0000
  0
ARC
  8
106
 10
48.5000
 20
32.0000
 30
0.0000
 40
2.0000
 50
270.0000
 51
0.0000
  0
LINE
  8
106
 10
48.5000
 20
3.0000
 30
0.0000
 11
63.5000
 21
3.0000
 31
0.0000
  0
LINE
  8
106
 10
33.5000
 20
3.0000
 30
0.0000
 11
29.0000
 21
3.0000
 31
0.0000
  0
LINE
  8
106
 10
22.0000
 20
3.0000
 30
0.0000
 11
15.0000
 21
3.0000
 31
0.0000
  0
ARC
  8
106
 10
29.0000
 20
4.6250
 30
0.0000
 40
1.6250
 50
202.6199
 51
270.0000
  0
ARC
  8
106
 10
26.0000
 20
3.3750
 30
0.0000
 40
1.6250
 50
22.6199
 51
90.0000
  0
LINE
  8
106
 10
26.0000
 20
5.0000
 30
0.0000
 11
25.0000
 21
5.0000
 31
0.0000
  0
ARC
  8
106
 10
25.0000
 20
3.3750
 30
0.0000
 40
1.6250
 50
90.0000
 51
157.3801
  0
ARC
  8
106
 10
22.0000
 20
4.6250
 30
0.0000
 40
1.6250
 50
270.0000
 51
337.3801
  0
LINE
  8
106
 10
22.0000
 20
11.0000
 30
0.0000
 11
19.0000
 21
11.0000
 31
0.0000
  0
ARC
  8
106
 10
19.0000
 20
13.0000
 30
0.0000
 40
2.0000
 50
180.0000
 51
270.0000
  0
LINE
  8
106
 10
17.0000
 20
13.0000
 30
0.0000
 11
17.0000
 21
40.0000
 31
0.0000
  0
ARC
  8
106
 10
15.0000
 20
40.0000
 30
0.0000
 40
2.0000
 50
0.0000
 51
90.0000
  0
LINE
  8
106
 10
15.0000
 20
42.0000
 30
0.0000
 11
14.0000
 21
42.0000
 31
0.0000
  0
ARC
  8
106
 10
14.0000
 20
43.0000
 30
0.0000
 40
1.0000
 50
180.0000
 51
270.0000
  0
LINE
  8
106
 10
13.0000
 20
43.0000
 30
0.0000
 11
13.0000
 21
46.0000
 31
0.0000
  0
ARC
  8
106
 10
14.0000
 20
46.0000
 30
0.0000
 40
1.0000
 50
90.0000
 51
180.0000
  0
LINE
  8
106
 10
14.0000
 20
47.0000
 30
0.0000
 11
15.0000
 21
47.0000
 31
0.0000
  0
ARC
  8
106
 10
15.0000
 20
49.0000
 30
0.0000
 40
2.0000
 50
270.0000
 51
0.0000
  0
LINE
  8
106
 10
17.0000
 20
49.0000
 30
0.0000
 11
17.0000
 21
64.0000
 31
0.0000
  0
LINE
  8
106
 10
3.0000
 20
72.0000
 30
0.0000
 11
3.0000
 21
47.0000
 31
0.0000
  0
ARC
  8
106
 10
5.0000
 20
47.0000
 30
0.0000
 40
2.0000
 50
180.0000
 51
270.0000
  0
LINE
  8
106
 10
5.0000
 20
45.0000
 30
0.0000
 11
6.0000
 21
45.0000
 31
0.0000
  0
ARC
  8
106
 10
6.0000
 20
44.0000
 30
0.0000
 40
1.0000
 50
0.0000
 51
90.0000
  0
LINE
  8
106
 10
7.0000
 20
44.0000
 30
0.0000
 11
7.0000
 21
43.0000
 31
0.0000
  0
ARC
  8
106
 10
6.0000
 20
43.0000
 30
0.0000
 40
1.0000
 50
270.0000
 51
0.0000
  0
ARC
  8
106
 10
26.0000
 20
20.0000
 30
0.0000
 40
6.0000
 50
180.0000
 51
270.0000
  0
LINE
  8
106
 10
47.5000
 20
45.0000
 30
0.0000
 11
46.0000
 21
45.0000
 31
0.0000
  0
ARC
  8
106
 10
46.0000
 20
44.0000
 30
0.0000
 40
1.0000
 50
90.0000
 51
180.0000
  0
LINE
  8
106
 10
45.0000
 20
44.0000
 30
0.0000
 11
45.0000
 21
43.0000
 31
0.0000
  0
LINE
  8
106
 10
53.0000
 20
21.0000
 30
0.0000
 11
59.5000
 21
21.0000
 31
0.0000
  0
LINE
  8
106
 10
59.5000
 20
18.0000
 30
0.0000
 11
51.5000
 21
18.0000
 31
0.0000
  0
LINE
  8
106
 10
20.0000
 20
20.0000
 30
0.0000
 11
20.0000
 21
31.0000
 31
0.0000
  0
LINE
  8
106
 10
20.0000
 20
38.0000
 30
0.0000
 11
20.0000
 21
51.0000
 31
0.0000
  0
LINE
  8
106
 10
48.0000
 20
53.0000
 30
0.0000
 11
51.5000
 21
53.0000
 31
0.0000
  0
LINE
  8
106
 10
61.0000
 20
44.0000
 30
0.0000
 11
61.0000
 21
36.0000
 31
0.0000
  0
ARC
  8
106
 10
62.0000
 20
36.0000
 30
0.0000
 40
1.0000
 50
180.0000
 51
270.0000
  0
LINE
  8
106
 10
62.0000
 20
35.0000
 30
0.0000
 11
63.0000
 21
35.0000
 31
0.0000
  0
ARC
  8
106
 10
63.0000
 20
36.0000
 30
0.0000
 40
1.0000
 50
270.0000
 51
0.0000
  0
LINE
  8
106
 10
64.0000
 20
36.0000
 30
0.0000
 11
64.0000
 21
37.0000
 31
0.0000
  0
LINE
  8
106
 10
63.0000
 20
30.0000
 30
0.0000
 11
62.0000
 21
30.0000
 31
0.0000
  0
ARC
  8
106
 10
62.0000
 20
29.0000
 30
0.0000
 40
1.0000
 50
90.0000
 51
180.0000
  0
LINE
  8
106
 10
61.0000
 20
29.0000
 30
0.0000
 11
61.0000
 21
28.0000
 31
0.0000
  0
ARC
  8
106
 10
62.0000
 20
28.0000
 30
0.0000
 40
1.0000
 50
180.0000
 51
270.0000
  0
LINE
  8
106
 10
63.5000
 20
30.0000
 30
0.0000
 11
63.0000
 21
30.0000
 31
0.0000
  0
LINE
  8
106
 10
64.0000
 20
37.0000
 30
0.0000
 11
64.0000
 21
44.0000
 31
0.0000
  0
LINE
  8
106
 10
80.0000
 20
32.0000
 30
0.0000
 11
80.0000
 21
49.0000
 31
0.0000
  0
ARC
  8
106
 10
52.0000
 20
44.0000
 30
0.0000
 40
12.0000
 50
0.0000
 51
90.0000
  0
LINE
  8
106
 10
52.0000
 20
56.0000
 30
0.0000
 11
48.0000
 21
56.0000
 31
0.0000
  0
LINE
  8
106
 10
69.0000
 20
53.0000
 30
0.0000
 11
69.0000
 21
52.0000
 31
0.0000
  0
ARC
  8
106
 10
70.0000
 20
52.0000
 30
0.0000
 40
1.0000
 50
180.0000
 51
270.0000
  0
LINE
  8
106
 10
70.0000
 20
51.0000
 30
0.0000
 11
78.0000
 21
51.0000
 31
0.0000
  0
ARC
  8
106
 10
78.0000
 20
49.0000
 30
0.0000
 40
2.0000
 50
0.0000
 51
90.0000
  0
ARC
  8
106
 10
70.0000
 20
53.0000
 30
0.0000
 40
1.0000
 50
90.0000
 51
180.0000
  0
LINE
  8
106
 10
70.0000
 20
54.0000
 30
0.0000
 11
78.0000
 21
54.0000
 31
0.0000
  0
ARC
  8
106
 10
78.0000
 20
56.0000
 30
0.0000
 40
2.0000
 50
270.0000
 51
0.0000
  0
LINE
  8
106
 10
78.5000
 20
3.0000
 30
0.0000
 11
85.0000
 21
3.0000
 31
0.0000
  0
ARC
  8
106
 10
85.0000
 20
47.0000
 30
0.0000
 40
2.0000
 50
180.0000
 51
270.0000
  0
LINE
  8
106
 10
85.0000
 20
45.0000
 30
0.0000
 11
86.0000
 21
45.0000
 31
0.0000
  0
ARC
  8
106
 10
86.0000
 20
44.0000
 30
0.0000
 40
1.0000
 50
0.0000
 51
90.0000
  0
LINE
  8
106
 10
87.0000
 20
44.0000
 30
0.0000
 11
87.0000
 21
43.0000
 31
0.0000
  0
ARC
  8
106
 10
86.0000
 20
43.0000
 30
0.0000
 40
1.0000
 50
270.0000
 51
0.0000
  0
LINE
  8
106
 10
83.0000
 20
47.0000
 30
0.0000
 11
83.0000
 21
74.0000
 31
0.0000
  0
ARC
  8
106
 10
95.0000
 20
42.5000
 30
0.0000
 40
2.0000
 50
0.0000
 51
90.0000
  0
LINE
  8
106
 10
95.0000
 20
44.5000
 30
0.0000
 11
94.0000
 21
44.5000
 31
0.0000
  0
ARC
  8
106
 10
94.0000
 20
45.5000
 30
0.0000
 40
1.0000
 50
180.0000
 51
270.0000
  0
LINE
  8
106
 10
93.0000
 20
45.5000
 30
0.0000
 11
93.0000
 21
48.5000
 31
0.0000
  0
LINE
  8
106
 10
94.0000
 20
49.5000
 30
0.0000
 11
95.0000
 21
49.5000
 31
0.0000
  0
ARC
  8
106
 10
95.0000
 20
51.5000
 30
0.0000
 40
2.0000
 50
270.0000
 51
0.0000
  0
ARC
  8
106
 10
94.0000
 20
48.5000
 30
0.0000
 40
1.0000
 50
90.0000
 51
180.0000
  0
LINE
  8
106
 10
97.0000
 20
51.5000
 30
0.0000
 11
97.0000
 21
64.0000
 31
0.0000
  0
ARC
  8
106
 10
6.0000
 20
40.0000
 30
0.0000
 40
2.0000
 50
90.0000
 51
180.0000
  0
LINE
  8
106
 10
4.0000
 20
40.0000
 30
0.0000
 11
4.0000
 21
8.0000
 31
0.0000
  0
LINE
  8
106
 10
97.0000
 20
42.5000
 30
0.0000
 11
97.0000
 21
9.0000
 31
0.0000
  0
ARC
  8
106
 10
91.0000
 20
9.0000
 30
0.0000
 40
6.0000
 50
270.0000
 51
0.0000
  0
LINE
  8
106
 10
91.0000
 20
3.0000
 30
0.0000
 11
85.0000
 21
3.0000
 31
0.0000
  0
ARC
  8
106
 10
9.0000
 20
8.0000
 30
0.0000
 40
5.0000
 50
180.0000
 51
270.0000
  0
LINE
  8
106
 10
9.0000
 20
3.0000
 30
0.0000
 11
15.0000
 21
3.0000
 31
0.0000
  0
ARC
  8
106
 10
52.5000
 20
43.0000
 30
0.0000
 40
7.5000
 50
180.0000
 51
233.1301
  0
ARC
  8
106
 10
44.2500
 20
32.0000
 30
0.0000
 40
6.2500
 50
0.0000
 51
53.1301
  0
ARC
  8
106
 10
58.9167
 20
44.0000
 30
0.0000
 40
2.0833
 50
0.0000
 51
73.7398
  0
ARC
  8
106
 10
61.1471
 20
51.6471
 30
0.0000
 40
5.8823
 50
196.2601
 51
253.7399
  0
ARC
  8
106
 10
51.5000
 20
48.8333
 30
0.0000
 40
4.1667
 50
16.2602
 51
90.0000
  0
ARC
  8
106
 10
86.0000
 20
40.0000
 30
0.0000
 40
2.0000
 50
90.0000
 51
180.0000
  0
LINE
  8
106
 10
84.0000
 20
40.0000
 30
0.0000
 11
84.0000
 21
21.0000
 31
0.0000
  0
LINE
  8
106
 10
48.0000
 20
53.0000
 30
0.0000
 11
36.0000
 21
53.0000
 31
0.0000
  0
LINE
  8
106
 10
36.0000
 20
56.0000
 30
0.0000
 11
40.0000
 21
56.0000
 31
0.0000
  0
LINE
  8
106
 10
29.0000
 20
56.0000
 30
0.0000
 11
22.0000
 21
56.0000
 31
0.0000
  0
ARC
  8
106
 10
22.0000
 20
58.0000
 30
0.0000
 40
2.0000
 50
180.0000
 51
270.0000
  0
LINE
  8
106
 10
29.0000
 20
53.0000
 30
0.0000
 11
22.0000
 21
53.0000
 31
0.0000
  0
ARC
  8
106
 10
22.0000
 20
51.0000
 30
0.0000
 40
2.0000
 50
90.0000
 51
180.0000
  0
LINE
  8
106
 10
3.0000
 20
72.0000
 30
0.0000
 11
3.0000
 21
74.0000
 31
0.0000
  0
ARC
  8
106
 10
5.0000
 20
74.0000
 30
0.0000
 40
2.0000
 50
90.0000
 51
180.0000
  0
ARC
  8
106
 10
5.0000
 20
64.0000
 30
0.0000
 40
12.0000
 50
0.0000
 51
90.0000
  0
ARC
  8
106
 10
85.0000
 20
74.0000
 30
0.0000
 40
2.0000
 50
90.0000
 51
180.0000
  0
LINE
  8
106
 10
80.0000
 20
56.0000
 30
0.0000
 11
80.0000
 21
61.0000
 31
0.0000
  0
ARC
  8
106
 10
73.0000
 20
61.0000
 30
0.0000
 40
7.0000
 50
0.0000
 51
90.0000
  0
LINE
  8
106
 10
73.0000
 20
68.0000
 30
0.0000
 11
56.5000
 21
68.0000
 31
0.0000
  0
LINE
  8
106
 10
20.0000
 20
58.0000
 30
0.0000
 11
20.0000
 21
64.0000
 31
0.0000
  0
LINE
  8
106
 10
29.0000
 20
56.0000
 30
0.0000
 11
36.0000
 21
56.0000
 31
0.0000
  0
LINE
  8
106
 10
36.0000
 20
53.0000
 30
0.0000
 11
29.0000
 21
53.0000
 31
0.0000
  0
LINE
  8
106
 10
56.5000
 20
68.0000
 30
0.0000
 11
56.0000
 21
68.0000
 31
0.0000
  0
ARC
  8
106
 10
56.0000
 20
58.0000
 30
0.0000
 40
10.0000
 50
90.0000
 51
180.0000
  0
ARC
  8
106
 10
48.0000
 20
58.0000
 30
0.0000
 40
2.0000
 50
180.0000
 51
270.0000
  0
ARC
  8
106
 10
85.0000
 20
64.0000
 30
0.0000
 40
12.0000
 50
0.0000
 51
90.0000
  0
LINE
  8
106
 10
40.0000
 20
56.0000
 30
0.0000
 11
41.0000
 21
56.0000
 31
0.0000
  0
ARC
  8
106
 10
41.0000
 20
58.0000
 30
0.0000
 40
2.0000
 50
270.0000
 51
0.0000
  0
ARC
  8
106
 10
56.0000
 20
58.0000
 30
0.0000
 40
13.0000
 50
90.0000
 51
180.0000
  0
LINE
  8
106
 10
56.0000
 20
71.0000
 30
0.0000
 11
77.5000
 21
71.0000
 31
0.0000
  0
LINE
  8
106
 10
77.5000
 20
71.0000
 30
0.0000
 11
78.0000
 21
71.0000
 31
0.0000
  0
ARC
  8
106
 10
78.0000
 20
73.0000
 30
0.0000
 40
2.0000
 50
270.0000
 51
0.0000
  0
LINE
  8
106
 10
80.0000
 20
73.0000
 30
0.0000
 11
80.0000
 21
74.0000
 31
0.0000
  0
ARC
  8
106
 10
85.0000
 20
74.0000
 30
0.0000
 40
5.0000
 50
90.0000
 51
180.0000
  0
LINE
  8
106
 10
95.0000
 20
79.0000
 30
0.0000
 11
100.0000
 21
79.0000
 31
0.0000
  0
LINE
  8
106
 10
0.0000
 20
81.0000
 30
0.0000
 11
4.0000
 21
81.0000
 31
0.0000
  0
LINE
  8
106
 10
100.0000
 20
0.0000
 30
0.0000
 11
45.0000
 21
0.0000
 31
0.0000
  0
LINE
  8
106
 10
44.0000
 20
0.0000
 30
0.0000
 11
0.0000
 21
0.0000
 31
0.0000
  0
LINE
  8
106
 10
20.0000
 20
38.0000
 30
0.0000
 11
20.0000
 21
31.0000
 31
0.0000
  0
LINE
  8
106
 10
33.5000
 20
3.0000
 30
0.0000
 11
44.0000
 21
3.0000
 31
0.0000
  0
LINE
  8
106
 10
45.0000
 20
3.0000
 30
0.0000
 11
48.5000
 21
3.0000
 31
0.0000
  0
LINE
  8
106
 10
78.5000
 20
3.0000
 30
0.0000
 11
74.0000
 21
3.0000
 31
0.0000
  0
ARC
  8
106
 10
74.0000
 20
5.5000
 30
0.0000
 40
2.5000
 50
216.8699
 51
270.0000
  0
ARC
  8
106
 10
69.0000
 20
1.7500
 30
0.0000
 40
3.7500
 50
36.8699
 51
90.0000
  0
ARC
  8
106
 10
69.0000
 20
1.7500
 30
0.0000
 40
3.7500
 50
90.0000
 51
143.1301
  0
ARC
  8
106
 10
64.0000
 20
5.5000
 30
0.0000
 40
2.5000
 50
270.0000
 51
323.1301
  0
LINE
  8
106
 10
64.0000
 20
3.0000
 30
0.0000
 11
63.5000
 21
3.0000
 31
0.0000
  0
LINE
  8
106
 10
63.5000
 20
30.0000
 30
0.0000
 11
72.0000
 21
30.0000
 31
0.0000
  0
LINE
  8
106
 10
80.0000
 20
32.0000
 30
0.0000
 11
80.0000
 21
22.5000
 31
0.0000
  0
ARC
  8
106
 10
80.0625
 20
15.5000
 30
0.0000
 40
4.0625
 50
120.5102
 51
180.0000
  0
ARC
  8
106
 10
75.9375
 20
22.5000
 30
0.0000
 40
4.0625
 50
300.5102
 51
0.0000
  0
ARC
  8
106
 10
64.9281
 20
21.0000
 30
0.0000
 40
19.0719
 50
339.3528
 51
0.0000
  0
ARC
  8
106
 10
79.4982
 20
15.5000
 30
0.0000
 40
3.4982
 50
180.0000
 51
339.5020
  0
LINE
  8
106
 10
46.5000
 20
10.0000
 30
0.0000
 11
46.5000
 21
9.0000
 31
0.0000
  0
ARC
  8
106
 10
45.5000
 20
9.0000
 30
0.0000
 40
1.0000
 50
270.0000
 51
0.0000
  0
LINE
  8
106
 10
45.5000
 20
8.0000
 30
0.0000
 11
44.5000
 21
8.0000
 31
0.0000
  0
LINE
  8
106
 10
22.0000
 20
11.0000
 30
0.0000
 11
26.0000
 21
11.0000
 31
0.0000
  0
ARC
  8
106
 10
26.0000
 20
-16.7500
 30
0.0000
 40
27.7500
 50
71.0754
 51
90.0000
  0
ARC
  8
106
 10
44.0000
 20
35.7500
 30
0.0000
 40
27.7500
 50
251.0754
 51
270.0000
  0
LINE
  8
106
 10
44.0000
 20
8.0000
 30
0.0000
 11
44.5000
 21
8.0000
 31
0.0000
  0
ARC
  8
106
 10
53.0000
 20
23.0000
 30
0.0000
 40
2.0000
 50
180.0000
 51
270.0000
  0
ARC
  8
106
 10
38.6667
 20
32.0000
 30
0.0000
 40
14.8333
 50
334.0108
 51
360.0000
  0
ARC
  8
106
 10
54.2636
 20
23.0000
 30
0.0000
 40
3.2636
 50
145.4684
 51
180.0000
  0
ARC
  8
106
 10
38.0286
 20
34.1712
 30
0.0000
 40
16.4436
 50
325.4684
 51
328.1746
  0
LINE
  8
106
 10
60.5000
 20
21.0000
 30
0.0000
 11
62.0000
 21
21.0000
 31
0.0000
  0
ARC
  8
106
 10
62.0000
 20
23.0000
 30
0.0000
 40
2.0000
 50
270.0000
 51
0.0000
  0
LINE
  8
106
 10
64.0000
 20
23.0000
 30
0.0000
 11
64.0000
 21
25.0000
 31
0.0000
  0
ARC
  8
106
 10
62.0000
 20
25.0000
 30
0.0000
 40
2.0000
 50
0.0000
 51
90.0000
  0
ARC
  8
106
 10
72.0000
 20
27.0000
 30
0.0000
 40
3.0000
 50
0.0000
 51
90.0000
  0
ARC
  8
106
 10
60.2273
 20
27.0000
 30
0.0000
 40
14.7727
 50
308.8801
 51
360.0000
  0
ARC
  8
106
 10
67.2536
 20
18.2860
 30
0.0000
 40
3.5788
 50
219.6987
 51
308.8801
  0
ARC
  8
106
 10
60.5000
 20
13.0000
 30
0.0000
 40
5.0000
 50
36.8699
 51
90.0000
  0
LINE
  8
106
 10
44.1000
 20
3.0000
 30
0.0000
 11
44.0000
 21
3.0000
 31
0.0000
  0
LINE
  8
106
 10
44.0000
 20
3.0000
 30
0.0000
 11
44.1000
 21
3.0000
 31
0.0000
  0
LINE
  8
106
 10
44.1000
 20
3.0000
 30
0.0000
 11
45.0000
 21
3.0000
 31
0.0000
  0
LINE
  8
106
 10
44.0000
 20
0.0000
 30
0.0000
 11
45.0000
 21
0.0000
 31
0.0000
  0
LINE
  8
106
 10
0.0000
 20
81.0000
 30
0.0000
 11
0.0000
 21
100.0000
 31
0.0000
  0
LINE
  8
106
 10
0.0000
 20
100.0000
 30
0.0000
 11
100.0000
 21
100.0000
 31
0.0000
  0
LINE
  8
106
 10
100.0000
 20
100.0000
 30
0.0000
 11
100.0000
 21
79.0000
 31
0.0000
  0
LINE
  8
106
 10
3.0000
 20
83.0000
 30
0.0000
 11
3.0000
 21
96.0000
 31
0.0000
  0
ARC
  8
106
 10
5.0000
 20
96.0000
 30
0.0000
 40
2.0000
 50
90.0000
 51
180.0000
  0
LINE
  8
106
 10
5.0000
 20
98.0000
 30
0.0000
 11
16.0000
 21
98.0000
 31
0.0000
  0
ARC
  8
106
 10
16.0000
 20
93.7500
 30
0.0000
 40
4.2500
 50
61.9275
 51
90.0000
  0
ARC
  8
106
 10
20.0000
 20
101.2500
 30
0.0000
 40
4.2500
 50
241.9275
 51
270.0000
  0
LINE
  8
106
 10
20.0000
 20
97.0000
 30
0.0000
 11
95.0000
 21
97.0000
 31
0.0000
  0
ARC
  8
106
 10
95.0000
 20
95.0000
 30
0.0000
 40
2.0000
 50
0.0000
 51
90.0000
  0
LINE
  8
106
 10
97.0000
 20
95.0000
 30
0.0000
 11
97.0000
 21
91.0000
 31
0.0000
  0
ARC
  8
106
 10
101.2500
 20
91.0000
 30
0.0000
 40
4.2500
 50
180.0000
 51
208.0725
  0
ARC
  8
106
 10
93.7500
 20
87.0000
 30
0.0000
 40
4.2500
 50
0.0000
 51
28.0725
  0
LINE
  8
106
 10
98.0000
 20
87.0000
 30
0.0000
 11
98.0000
 21
86.0000
 31
0.0000
  0
ARC
  8
106
 10
93.7500
 20
86.0000
 30
0.0000
 40
4.2500
 50
331.9275
 51
0.0000
  0
ARC
  8
106
 10
101.2500
 20
82.0000
 30
0.0000
 40
4.2500
 50
151.9275
 51
180.0000
  0
LINE
  8
106
 10
97.0000
 20
82.0000
 30
0.0000
 11
97.0000
 21
81.0000
 31
0.0000
  0
ARC
  8
106
 10
95.0000
 20
81.0000
 30
0.0000
 40
2.0000
 50
270.0000
 51
0.0000
  0
LINE
  8
106
 10
95.0000
 20
79.0000
 30
0.0000
 11
100.0000
 21
79.0000
 31
0.0000
  0
LINE
  8
106
 10
3.0000
 20
83.0000
 30
0.0000
 11
3.0000
 21
82.0000
 31
0.0000
  0
ARC
  8
106
 10
4.0000
 20
82.0000
 30
0.0000
 40
1.0000
 50
180.0000
 51
270.0000
  0
LINE
  8
106
 10
4.0000
 20
81.0000
 30
0.0000
 11
0.0000
 21
81.0000
 31
0.0000
  0
LINE
  8
106
 10
85.0000
 20
79.0000
 30
0.0000
 11
95.0000
 21
79.0000
 31
0.0000
  0
LINE
  8
106
 10
100.0000
 20
0.0000
 30
0.0000
 11
100.0000
 21
79.0000
 31
0.0000
  0
LINE
  8
106
 10
0.0000
 20
81.0000
 30
0.0000
 11
0.0000
 21
0.0000
 31
0.0000
  0
ARC
  8
106
 10
2.9688
 20
64.0000
 30
0.0000
 40
17.0313
 50
360.0000
 51
86.5286
  0
ENDSEC
  0
EOF
