  0
SECTION
  2
HEADER
  9
$ACADVER
  1
AC1009
  9
$FILLMODE
 70
0
  9
$EXTMIN
 10
-2.8950
 20
-9.5571
 30
0.0000
  9
$EXTMAX
 10
104.8950
 20
102.6403
 30
0.0000
  0
ENDSEC
  0
SECTION
  2
TABLES
  0
TABLE
  2
LTYPE
 70
1
  0
LTYPE
  2
CONTINUOUS
 70
64
  3
Solid line
 72
65
 73
0
 40
0
  0
ENDTAB
  0
TABLE
  2
LAYER
 70
255
  0
LAYER
  2
105
 70
64
 62
253
  6
CONTINUOUS
  0
ENDTAB
  0
ENDSEC
  0
SECTION
  2
BLOCKS
  0
BLOCK
  8
0
  2
RECT
 70
64
 10
0.0000
 20
0.0000
 30
0.0000
  3
RECT
  0
SOLID
  8
0
 10
-0.5000
 20
-0.5000
 30
0.0000
 11
0.5000
 21
-0.5000
 31
0.0000
 12
-0.5000
 22
0.5000
 32
0.0000
 13
0.5000
 23
0.5000
 33
0.0000
  0
ENDBLK
  8
0
  0
BLOCK
  8
0
  2
PIE
 70
64
 10
0.0000
 20
0.0000
 30
0.0000
  3
PIE
  0
CIRCLE
  8
0
 10
0.0000
 20
0.0000
 30
0.0000
 40
0.5000
  0
ENDBLK
  8
0
  0
BLOCK
  8
0
  2
OCTAGONP
 70
64
 10
0.0000
 20
0.0000
 30
0.0000
  3
OCTAGONP
  0
POLYLINE
  8
0
 66
1
 10
0.0000
 20
0.0000
 30
0.0000
 40
0.0000
 41
0.0000
 70
1
  0
VERTEX
  8
0
 10
-0.5000
 20
-0.2071
 30
0.0000
  0
VERTEX
  8
0
 10
-0.5000
 20
0.2071
 30
0.0000
  0
VERTEX
  8
0
 10
-0.2071
 20
0.5000
 30
0.0000
  0
VERTEX
  8
0
 10
0.2071
 20
0.5000
 30
0.0000
  0
VERTEX
  8
0
 10
0.5000
 20
0.2071
 30
0.0000
  0
VERTEX
  8
0
 10
0.5000
 20
-0.2071
 30
0.0000
  0
VERTEX
  8
0
 10
0.2071
 20
-0.5000
 30
0.0000
  0
VERTEX
  8
0
 10
-0.2071
 20
-0.5000
 30
0.0000
  0
SEQEND
  8
0
  0
ENDBLK
  8
0
  0
BLOCK
  8
0
  2
SQUAREP
 70
64
 10
0.0000
 20
0.0000
 30
0.0000
  3
SQUAREP
  0
SOLID
  8
0
 10
-0.5000
 20
-0.5000
 30
0.0000
 11
0.5000
 21
-0.5000
 31
0.0000
 12
-0.5000
 22
0.5000
 32
0.0000
 13
0.5000
 23
0.5000
 33
0.0000
  0
ENDBLK
  8
0
  0
BLOCK
  8
0
  2
ROUNDP
 70
64
 10
0.0000
 20
0.0000
 30
0.0000
  3
ROUNDP
  0
CIRCLE
  8
0
 10
0.0000
 20
0.0000
 30
0.0000
 40
0.5000
  0
ENDBLK
  8
0
  0
BLOCK
  8
0
  2
ANNULUSP
 70
64
 10
0.0000
 20
0.0000
 30
0.0000
  3
ANNULUSP
  0
CIRCLE
  8
0
 10
0.0000
 20
0.0000
 30
0.0000
 40
0.5000
  0
ENDBLK
  8
0
  0
BLOCK
  8
0
  2
THERMALP
 70
64
 10
0.0000
 20
0.0000
 30
0.0000
  3
THERMALP
  0
LINE
  8
0
 10
-0.2379
 20
0.4500
 30
0.0000
 11
0.2379
 21
0.4500
 31
0.0000
  0
LINE
  8
0
 10
0.4500
 20
0.2379
 30
0.0000
 11
0.4500
 21
-0.2379
 31
0.0000
  0
LINE
  8
0
 10
0.2379
 20
-0.4500
 30
0.0000
 11
-0.2379
 21
-0.4500
 31
0.0000
  0
LINE
  8
0
 10
-0.4500
 20
-0.2379
 30
0.0000
 11
-0.4500
 21
0.2379
 31
0.0000
  0
ENDBLK
  8
0
  0
BLOCK
  8
0
  2
OCTAGONV
 70
64
 10
0.0000
 20
0.0000
 30
0.0000
  3
OCTAGONV
  0
POLYLINE
  8
0
 66
1
 10
0.0000
 20
0.0000
 30
0.0000
 40
0.0000
 41
0.0000
 70
1
  0
VERTEX
  8
0
 10
-0.5000
 20
-0.2071
 30
0.0000
  0
VERTEX
  8
0
 10
-0.5000
 20
0.2071
 30
0.0000
  0
VERTEX
  8
0
 10
-0.2071
 20
0.5000
 30
0.0000
  0
VERTEX
  8
0
 10
0.2071
 20
0.5000
 30
0.0000
  0
VERTEX
  8
0
 10
0.5000
 20
0.2071
 30
0.0000
  0
VERTEX
  8
0
 10
0.5000
 20
-0.2071
 30
0.0000
  0
VERTEX
  8
0
 10
0.2071
 20
-0.5000
 30
0.0000
  0
VERTEX
  8
0
 10
-0.2071
 20
-0.5000
 30
0.0000
  0
SEQEND
  8
0
  0
ENDBLK
  8
0
  0
BLOCK
  8
0
  2
SQUAREV
 70
64
 10
0.0000
 20
0.0000
 30
0.0000
  3
SQUAREV
  0
SOLID
  8
0
 10
-0.5000
 20
-0.5000
 30
0.0000
 11
0.5000
 21
-0.5000
 31
0.0000
 12
-0.5000
 22
0.5000
 32
0.0000
 13
0.5000
 23
0.5000
 33
0.0000
  0
ENDBLK
  8
0
  0
BLOCK
  8
0
  2
ROUNDV
 70
64
 10
0.0000
 20
0.0000
 30
0.0000
  3
ROUNDV
  0
CIRCLE
  8
0
 10
0.0000
 20
0.0000
 30
0.0000
 40
0.5000
  0
ENDBLK
  8
0
  0
BLOCK
  8
0
  2
ANNULUSV
 70
64
 10
0.0000
 20
0.0000
 30
0.0000
  3
ANNULUSV
  0
CIRCLE
  8
0
 10
0.0000
 20
0.0000
 30
0.0000
 40
0.5000
  0
ENDBLK
  8
0
  0
BLOCK
  8
0
  2
THERMALV
 70
64
 10
0.0000
 20
0.0000
 30
0.0000
  3
THERMALV
  0
LINE
  8
0
 10
-0.2379
 20
0.4500
 30
0.0000
 11
0.2379
 21
0.4500
 31
0.0000
  0
LINE
  8
0
 10
0.4500
 20
0.2379
 30
0.0000
 11
0.4500
 21
-0.2379
 31
0.0000
  0
LINE
  8
0
 10
0.2379
 20
-0.4500
 30
0.0000
 11
-0.2379
 21
-0.4500
 31
0.0000
  0
LINE
  8
0
 10
-0.4500
 20
-0.2379
 30
0.0000
 11
-0.4500
 21
0.2379
 31
0.0000
  0
ENDBLK
  8
0
  0
BLOCK
  8
0
  2
LONGP100
 70
64
 10
0.0000
 20
0.0000
 30
0.0000
  3
LONGP100
  0
POLYLINE
  8
0
 66
1
 10
0.0000
 20
0.0000
 30
0.0000
 40
0.0000
 41
0.0000
 70
1
  0
VERTEX
  8
0
 10
-0.5000
 20
-0.5000
 30
0.0000
  0
VERTEX
  8
0
 10
0.5000
 20
-0.5000
 30
0.0000
 42
1.0000
  0
VERTEX
  8
0
 10
0.5000
 20
0.5000
 30
0.0000
  0
VERTEX
  8
0
 10
-0.5000
 20
0.5000
 30
0.0000
 42
1.0000
  0
SEQEND
  8
0
  0
ENDBLK
  8
0
  0
ENDSEC
  0
SECTION
  2
ENTITIES
  0
ARC
  8
105
 10
51.5000
 20
13.0000
 30
0.0000
 40
5.0000
 50
90.0000
 51
180.0000
  0
LINE
  8
105
 10
46.5000
 20
13.0000
 30
0.0000
 11
46.5000
 21
5.0000
 31
0.0000
  0
ARC
  8
105
 10
51.5000
 20
13.0000
 30
0.0000
 40
8.0000
 50
90.0000
 51
180.0000
  0
ARC
  8
105
 10
33.5000
 20
13.0000
 30
0.0000
 40
10.0000
 50
270.0000
 51
0.0000
  0
ARC
  8
105
 10
48.5000
 20
5.0000
 30
0.0000
 40
2.0000
 50
180.0000
 51
270.0000
  0
LINE
  8
105
 10
59.5000
 20
18.0000
 30
0.0000
 11
60.5000
 21
18.0000
 31
0.0000
  0
ARC
  8
105
 10
60.5000
 20
13.0000
 30
0.0000
 40
5.0000
 50
0.0000
 51
90.0000
  0
LINE
  8
105
 10
65.5000
 20
13.0000
 30
0.0000
 11
65.5000
 21
5.0000
 31
0.0000
  0
ARC
  8
105
 10
63.5000
 20
5.0000
 30
0.0000
 40
2.0000
 50
270.0000
 51
0.0000
  0
LINE
  8
105
 10
59.5000
 20
21.0000
 30
0.0000
 11
60.5000
 21
21.0000
 31
0.0000
  0
ARC
  8
105
 10
60.5000
 20
13.0000
 30
0.0000
 40
8.0000
 50
0.0000
 51
90.0000
  0
ARC
  8
105
 10
78.5000
 20
13.0000
 30
0.0000
 40
10.0000
 50
180.0000
 51
270.0000
  0
ARC
  8
105
 10
48.5000
 20
16.0000
 30
0.0000
 40
14.0000
 50
90.0000
 51
180.0000
  0
ARC
  8
105
 10
32.5000
 20
16.0000
 30
0.0000
 40
2.0000
 50
270.0000
 51
0.0000
  0
LINE
  8
105
 10
53.5000
 20
32.0000
 30
0.0000
 11
53.5000
 21
43.0000
 31
0.0000
  0
ARC
  8
105
 10
51.5000
 20
43.0000
 30
0.0000
 40
2.0000
 50
0.0000
 51
90.0000
  0
LINE
  8
105
 10
51.5000
 20
45.0000
 30
0.0000
 11
47.5000
 21
45.0000
 31
0.0000
  0
LINE
  8
105
 10
32.5000
 20
14.0000
 30
0.0000
 11
26.0000
 21
14.0000
 31
0.0000
  0
ARC
  8
105
 10
48.5000
 20
32.0000
 30
0.0000
 40
2.0000
 50
270.0000
 51
0.0000
  0
ARC
  8
105
 10
48.5000
 20
32.0000
 30
0.0000
 40
5.0000
 50
270.0000
 51
0.0000
  0
ARC
  8
105
 10
48.5000
 20
16.0000
 30
0.0000
 40
11.0000
 50
90.0000
 51
180.0000
  0
ARC
  8
105
 10
32.5000
 20
16.0000
 30
0.0000
 40
5.0000
 50
270.0000
 51
0.0000
  0
LINE
  8
105
 10
33.5000
 20
3.0000
 30
0.0000
 11
29.0000
 21
3.0000
 31
0.0000
  0
LINE
  8
105
 10
22.0000
 20
3.0000
 30
0.0000
 11
15.0000
 21
3.0000
 31
0.0000
  0
LINE
  8
105
 10
32.5000
 20
11.0000
 30
0.0000
 11
29.0000
 21
11.0000
 31
0.0000
  0
ARC
  8
105
 10
29.0000
 20
4.6250
 30
0.0000
 40
1.6250
 50
202.6199
 51
270.0000
  0
ARC
  8
105
 10
26.0000
 20
3.3750
 30
0.0000
 40
1.6250
 50
22.6199
 51
90.0000
  0
LINE
  8
105
 10
26.0000
 20
5.0000
 30
0.0000
 11
25.0000
 21
5.0000
 31
0.0000
  0
ARC
  8
105
 10
25.0000
 20
3.3750
 30
0.0000
 40
1.6250
 50
90.0000
 51
157.3801
  0
ARC
  8
105
 10
22.0000
 20
4.6250
 30
0.0000
 40
1.6250
 50
270.0000
 51
337.3801
  0
ARC
  8
105
 10
28.8750
 20
10.0000
 30
0.0000
 40
1.0078
 50
82.8750
 51
150.2551
  0
ARC
  8
105
 10
27.1250
 20
11.0000
 30
0.0000
 40
1.0078
 50
262.8750
 51
330.2551
  0
LINE
  8
105
 10
27.0000
 20
10.0000
 30
0.0000
 11
24.0000
 21
10.0000
 31
0.0000
  0
ARC
  8
105
 10
23.8750
 20
11.0000
 30
0.0000
 40
1.0078
 50
209.7449
 51
277.1250
  0
ARC
  8
105
 10
22.1250
 20
10.0000
 30
0.0000
 40
1.0078
 50
29.7449
 51
97.1250
  0
LINE
  8
105
 10
22.0000
 20
11.0000
 30
0.0000
 11
19.0000
 21
11.0000
 31
0.0000
  0
ARC
  8
105
 10
19.0000
 20
13.0000
 30
0.0000
 40
2.0000
 50
180.0000
 51
270.0000
  0
LINE
  8
105
 10
17.0000
 20
13.0000
 30
0.0000
 11
17.0000
 21
40.0000
 31
0.0000
  0
ARC
  8
105
 10
15.0000
 20
40.0000
 30
0.0000
 40
2.0000
 50
0.0000
 51
90.0000
  0
LINE
  8
105
 10
15.0000
 20
42.0000
 30
0.0000
 11
14.0000
 21
42.0000
 31
0.0000
  0
ARC
  8
105
 10
14.0000
 20
43.0000
 30
0.0000
 40
1.0000
 50
180.0000
 51
270.0000
  0
LINE
  8
105
 10
13.0000
 20
43.0000
 30
0.0000
 11
13.0000
 21
46.0000
 31
0.0000
  0
ARC
  8
105
 10
14.0000
 20
46.0000
 30
0.0000
 40
1.0000
 50
90.0000
 51
180.0000
  0
LINE
  8
105
 10
14.0000
 20
47.0000
 30
0.0000
 11
15.0000
 21
47.0000
 31
0.0000
  0
ARC
  8
105
 10
15.0000
 20
49.0000
 30
0.0000
 40
2.0000
 50
270.0000
 51
0.0000
  0
LINE
  8
105
 10
17.0000
 20
49.0000
 30
0.0000
 11
17.0000
 21
64.0000
 31
0.0000
  0
LINE
  8
105
 10
3.0000
 20
72.0000
 30
0.0000
 11
3.0000
 21
47.0000
 31
0.0000
  0
ARC
  8
105
 10
5.0000
 20
47.0000
 30
0.0000
 40
2.0000
 50
180.0000
 51
270.0000
  0
LINE
  8
105
 10
5.0000
 20
45.0000
 30
0.0000
 11
6.0000
 21
45.0000
 31
0.0000
  0
ARC
  8
105
 10
6.0000
 20
44.0000
 30
0.0000
 40
1.0000
 50
0.0000
 51
90.0000
  0
LINE
  8
105
 10
7.0000
 20
44.0000
 30
0.0000
 11
7.0000
 21
43.0000
 31
0.0000
  0
ARC
  8
105
 10
6.0000
 20
43.0000
 30
0.0000
 40
1.0000
 50
270.0000
 51
0.0000
  0
ARC
  8
105
 10
26.0000
 20
20.0000
 30
0.0000
 40
6.0000
 50
180.0000
 51
270.0000
  0
LINE
  8
105
 10
47.5000
 20
45.0000
 30
0.0000
 11
46.0000
 21
45.0000
 31
0.0000
  0
ARC
  8
105
 10
46.0000
 20
44.0000
 30
0.0000
 40
1.0000
 50
90.0000
 51
180.0000
  0
LINE
  8
105
 10
45.0000
 20
44.0000
 30
0.0000
 11
45.0000
 21
43.0000
 31
0.0000
  0
LINE
  8
105
 10
20.0000
 20
20.0000
 30
0.0000
 11
20.0000
 21
31.0000
 31
0.0000
  0
ARC
  8
105
 10
22.0000
 20
31.0000
 30
0.0000
 40
2.0000
 50
90.0000
 51
180.0000
  0
LINE
  8
105
 10
22.0000
 20
33.0000
 30
0.0000
 11
34.0000
 21
33.0000
 31
0.0000
  0
LINE
  8
105
 10
40.0000
 20
38.0000
 30
0.0000
 11
40.0000
 21
44.0000
 31
0.0000
  0
LINE
  8
105
 10
37.0000
 20
44.0000
 30
0.0000
 11
37.0000
 21
38.0000
 31
0.0000
  0
ARC
  8
105
 10
35.0000
 20
38.0000
 30
0.0000
 40
2.0000
 50
270.0000
 51
0.0000
  0
LINE
  8
105
 10
35.0000
 20
36.0000
 30
0.0000
 11
22.0000
 21
36.0000
 31
0.0000
  0
ARC
  8
105
 10
22.0000
 20
38.0000
 30
0.0000
 40
2.0000
 50
180.0000
 51
270.0000
  0
LINE
  8
105
 10
20.0000
 20
38.0000
 30
0.0000
 11
20.0000
 21
51.0000
 31
0.0000
  0
LINE
  8
105
 10
48.0000
 20
53.0000
 30
0.0000
 11
51.5000
 21
53.0000
 31
0.0000
  0
LINE
  8
105
 10
61.0000
 20
44.0000
 30
0.0000
 11
61.0000
 21
36.0000
 31
0.0000
  0
ARC
  8
105
 10
62.0000
 20
36.0000
 30
0.0000
 40
1.0000
 50
180.0000
 51
270.0000
  0
LINE
  8
105
 10
62.0000
 20
35.0000
 30
0.0000
 11
63.0000
 21
35.0000
 31
0.0000
  0
ARC
  8
105
 10
63.0000
 20
36.0000
 30
0.0000
 40
1.0000
 50
270.0000
 51
0.0000
  0
LINE
  8
105
 10
64.0000
 20
36.0000
 30
0.0000
 11
64.0000
 21
37.0000
 31
0.0000
  0
LINE
  8
105
 10
63.0000
 20
30.0000
 30
0.0000
 11
62.0000
 21
30.0000
 31
0.0000
  0
ARC
  8
105
 10
62.0000
 20
29.0000
 30
0.0000
 40
1.0000
 50
90.0000
 51
180.0000
  0
LINE
  8
105
 10
61.0000
 20
29.0000
 30
0.0000
 11
61.0000
 21
28.0000
 31
0.0000
  0
ARC
  8
105
 10
62.0000
 20
28.0000
 30
0.0000
 40
1.0000
 50
180.0000
 51
270.0000
  0
LINE
  8
105
 10
63.5000
 20
30.0000
 30
0.0000
 11
63.0000
 21
30.0000
 31
0.0000
  0
LINE
  8
105
 10
64.0000
 20
37.0000
 30
0.0000
 11
64.0000
 21
44.0000
 31
0.0000
  0
LINE
  8
105
 10
80.0000
 20
32.0000
 30
0.0000
 11
80.0000
 21
49.0000
 31
0.0000
  0
ARC
  8
105
 10
52.0000
 20
44.0000
 30
0.0000
 40
12.0000
 50
0.0000
 51
90.0000
  0
LINE
  8
105
 10
52.0000
 20
56.0000
 30
0.0000
 11
48.0000
 21
56.0000
 31
0.0000
  0
LINE
  8
105
 10
69.0000
 20
53.0000
 30
0.0000
 11
69.0000
 21
52.0000
 31
0.0000
  0
ARC
  8
105
 10
70.0000
 20
52.0000
 30
0.0000
 40
1.0000
 50
180.0000
 51
270.0000
  0
LINE
  8
105
 10
70.0000
 20
51.0000
 30
0.0000
 11
78.0000
 21
51.0000
 31
0.0000
  0
ARC
  8
105
 10
78.0000
 20
49.0000
 30
0.0000
 40
2.0000
 50
0.0000
 51
90.0000
  0
ARC
  8
105
 10
70.0000
 20
53.0000
 30
0.0000
 40
1.0000
 50
90.0000
 51
180.0000
  0
LINE
  8
105
 10
70.0000
 20
54.0000
 30
0.0000
 11
78.0000
 21
54.0000
 31
0.0000
  0
ARC
  8
105
 10
78.0000
 20
56.0000
 30
0.0000
 40
2.0000
 50
270.0000
 51
0.0000
  0
LINE
  8
105
 10
100.0000
 20
0.0000
 30
0.0000
 11
100.0000
 21
79.0000
 31
0.0000
  0
LINE
  8
105
 10
78.5000
 20
3.0000
 30
0.0000
 11
85.0000
 21
3.0000
 31
0.0000
  0
LINE
  8
105
 10
63.5000
 20
30.0000
 30
0.0000
 11
78.0000
 21
30.0000
 31
0.0000
  0
ARC
  8
105
 10
78.0000
 20
32.0000
 30
0.0000
 40
2.0000
 50
270.0000
 51
0.0000
  0
ARC
  8
105
 10
62.0000
 20
14.5000
 30
0.0000
 40
12.5000
 50
16.2602
 51
90.0000
  0
ARC
  8
105
 10
100.7692
 20
25.8077
 30
0.0000
 40
27.8846
 50
196.2602
 51
207.3426
  0
ARC
  8
105
 10
77.6532
 20
13.8549
 30
0.0000
 40
1.8612
 50
207.3426
 51
265.2773
  0
LINE
  8
105
 10
77.5000
 20
12.0000
 30
0.0000
 11
78.0000
 21
12.0000
 31
0.0000
  0
LINE
  8
105
 10
78.0000
 20
12.0000
 30
0.0000
 11
81.0000
 21
12.0000
 31
0.0000
  0
ARC
  8
105
 10
85.0000
 20
47.0000
 30
0.0000
 40
2.0000
 50
180.0000
 51
270.0000
  0
LINE
  8
105
 10
85.0000
 20
45.0000
 30
0.0000
 11
86.0000
 21
45.0000
 31
0.0000
  0
ARC
  8
105
 10
86.0000
 20
44.0000
 30
0.0000
 40
1.0000
 50
0.0000
 51
90.0000
  0
LINE
  8
105
 10
87.0000
 20
44.0000
 30
0.0000
 11
87.0000
 21
43.0000
 31
0.0000
  0
ARC
  8
105
 10
86.0000
 20
43.0000
 30
0.0000
 40
1.0000
 50
270.0000
 51
0.0000
  0
LINE
  8
105
 10
83.0000
 20
47.0000
 30
0.0000
 11
83.0000
 21
74.0000
 31
0.0000
  0
ARC
  8
105
 10
95.0000
 20
42.5000
 30
0.0000
 40
2.0000
 50
0.0000
 51
90.0000
  0
LINE
  8
105
 10
95.0000
 20
44.5000
 30
0.0000
 11
94.0000
 21
44.5000
 31
0.0000
  0
ARC
  8
105
 10
94.0000
 20
45.5000
 30
0.0000
 40
1.0000
 50
180.0000
 51
270.0000
  0
LINE
  8
105
 10
93.0000
 20
45.5000
 30
0.0000
 11
93.0000
 21
48.5000
 31
0.0000
  0
LINE
  8
105
 10
94.0000
 20
49.5000
 30
0.0000
 11
95.0000
 21
49.5000
 31
0.0000
  0
ARC
  8
105
 10
95.0000
 20
51.5000
 30
0.0000
 40
2.0000
 50
270.0000
 51
0.0000
  0
ARC
  8
105
 10
94.0000
 20
48.5000
 30
0.0000
 40
1.0000
 50
90.0000
 51
180.0000
  0
LINE
  8
105
 10
97.0000
 20
51.5000
 30
0.0000
 11
97.0000
 21
64.0000
 31
0.0000
  0
ARC
  8
105
 10
38.0000
 20
44.0000
 30
0.0000
 40
1.0000
 50
90.0000
 51
180.0000
  0
LINE
  8
105
 10
38.0000
 20
45.0000
 30
0.0000
 11
39.0000
 21
45.0000
 31
0.0000
  0
ARC
  8
105
 10
39.0000
 20
44.0000
 30
0.0000
 40
1.0000
 50
0.0000
 51
90.0000
  0
LINE
  8
105
 10
34.0000
 20
33.0000
 30
0.0000
 11
35.0000
 21
33.0000
 31
0.0000
  0
ARC
  8
105
 10
35.0000
 20
38.0000
 30
0.0000
 40
5.0000
 50
270.0000
 51
0.0000
  0
ARC
  8
105
 10
6.0000
 20
40.0000
 30
0.0000
 40
2.0000
 50
90.0000
 51
180.0000
  0
LINE
  8
105
 10
4.0000
 20
40.0000
 30
0.0000
 11
4.0000
 21
8.0000
 31
0.0000
  0
LINE
  8
105
 10
97.0000
 20
42.5000
 30
0.0000
 11
97.0000
 21
9.0000
 31
0.0000
  0
LINE
  8
105
 10
87.0000
 20
3.0000
 30
0.0000
 11
85.0000
 21
3.0000
 31
0.0000
  0
ARC
  8
105
 10
52.5000
 20
43.0000
 30
0.0000
 40
7.5000
 50
180.0000
 51
233.1301
  0
ARC
  8
105
 10
44.2500
 20
32.0000
 30
0.0000
 40
6.2500
 50
0.0000
 51
53.1301
  0
ARC
  8
105
 10
58.9167
 20
44.0000
 30
0.0000
 40
2.0833
 50
0.0000
 51
73.7398
  0
ARC
  8
105
 10
61.1471
 20
51.6471
 30
0.0000
 40
5.8823
 50
196.2601
 51
253.7399
  0
ARC
  8
105
 10
51.5000
 20
48.8333
 30
0.0000
 40
4.1667
 50
16.2602
 51
90.0000
  0
ARC
  8
105
 10
86.0000
 20
40.0000
 30
0.0000
 40
2.0000
 50
90.0000
 51
180.0000
  0
LINE
  8
105
 10
84.0000
 20
40.0000
 30
0.0000
 11
84.0000
 21
15.0000
 31
0.0000
  0
ARC
  8
105
 10
81.0000
 20
15.0000
 30
0.0000
 40
3.0000
 50
270.0000
 51
0.0000
  0
LINE
  8
105
 10
48.0000
 20
53.0000
 30
0.0000
 11
36.0000
 21
53.0000
 31
0.0000
  0
LINE
  8
105
 10
36.0000
 20
56.0000
 30
0.0000
 11
40.0000
 21
56.0000
 31
0.0000
  0
LINE
  8
105
 10
29.0000
 20
56.0000
 30
0.0000
 11
22.0000
 21
56.0000
 31
0.0000
  0
ARC
  8
105
 10
22.0000
 20
58.0000
 30
0.0000
 40
2.0000
 50
180.0000
 51
270.0000
  0
LINE
  8
105
 10
29.0000
 20
53.0000
 30
0.0000
 11
22.0000
 21
53.0000
 31
0.0000
  0
ARC
  8
105
 10
22.0000
 20
51.0000
 30
0.0000
 40
2.0000
 50
90.0000
 51
180.0000
  0
LINE
  8
105
 10
3.0000
 20
72.0000
 30
0.0000
 11
3.0000
 21
74.0000
 31
0.0000
  0
ARC
  8
105
 10
5.0000
 20
74.0000
 30
0.0000
 40
2.0000
 50
90.0000
 51
180.0000
  0
ARC
  8
105
 10
5.0000
 20
64.0000
 30
0.0000
 40
12.0000
 50
0.0000
 51
90.0000
  0
ARC
  8
105
 10
85.0000
 20
74.0000
 30
0.0000
 40
2.0000
 50
90.0000
 51
180.0000
  0
LINE
  8
105
 10
80.0000
 20
56.0000
 30
0.0000
 11
80.0000
 21
61.0000
 31
0.0000
  0
ARC
  8
105
 10
73.0000
 20
61.0000
 30
0.0000
 40
7.0000
 50
0.0000
 51
90.0000
  0
LINE
  8
105
 10
73.0000
 20
68.0000
 30
0.0000
 11
56.5000
 21
68.0000
 31
0.0000
  0
LINE
  8
105
 10
20.0000
 20
58.0000
 30
0.0000
 11
20.0000
 21
64.0000
 31
0.0000
  0
LINE
  8
105
 10
29.0000
 20
56.0000
 30
0.0000
 11
36.0000
 21
56.0000
 31
0.0000
  0
LINE
  8
105
 10
36.0000
 20
53.0000
 30
0.0000
 11
29.0000
 21
53.0000
 31
0.0000
  0
LINE
  8
105
 10
56.5000
 20
68.0000
 30
0.0000
 11
56.0000
 21
68.0000
 31
0.0000
  0
ARC
  8
105
 10
56.0000
 20
58.0000
 30
0.0000
 40
10.0000
 50
90.0000
 51
180.0000
  0
ARC
  8
105
 10
48.0000
 20
58.0000
 30
0.0000
 40
2.0000
 50
180.0000
 51
270.0000
  0
ARC
  8
105
 10
85.0000
 20
64.0000
 30
0.0000
 40
12.0000
 50
0.0000
 51
90.0000
  0
LINE
  8
105
 10
40.0000
 20
56.0000
 30
0.0000
 11
41.0000
 21
56.0000
 31
0.0000
  0
ARC
  8
105
 10
41.0000
 20
58.0000
 30
0.0000
 40
2.0000
 50
270.0000
 51
0.0000
  0
ARC
  8
105
 10
56.0000
 20
58.0000
 30
0.0000
 40
13.0000
 50
90.0000
 51
180.0000
  0
LINE
  8
105
 10
56.0000
 20
71.0000
 30
0.0000
 11
77.5000
 21
71.0000
 31
0.0000
  0
LINE
  8
105
 10
77.5000
 20
71.0000
 30
0.0000
 11
78.0000
 21
71.0000
 31
0.0000
  0
ARC
  8
105
 10
78.0000
 20
73.0000
 30
0.0000
 40
2.0000
 50
270.0000
 51
0.0000
  0
LINE
  8
105
 10
80.0000
 20
73.0000
 30
0.0000
 11
80.0000
 21
74.0000
 31
0.0000
  0
ARC
  8
105
 10
85.0000
 20
74.0000
 30
0.0000
 40
5.0000
 50
90.0000
 51
180.0000
  0
LINE
  8
105
 10
85.0000
 20
79.0000
 30
0.0000
 11
95.0000
 21
79.0000
 31
0.0000
  0
LINE
  8
105
 10
95.0000
 20
79.0000
 30
0.0000
 11
100.0000
 21
79.0000
 31
0.0000
  0
LINE
  8
105
 10
0.0000
 20
81.0000
 30
0.0000
 11
3.0000
 21
81.0000
 31
0.0000
  0
LINE
  8
105
 10
100.0000
 20
0.0000
 30
0.0000
 11
93.0000
 21
0.0000
 31
0.0000
  0
LINE
  8
105
 10
7.0000
 20
0.0000
 30
0.0000
 11
0.0000
 21
0.0000
 31
0.0000
  0
LINE
  8
105
 10
0.0000
 20
0.0000
 30
0.0000
 11
0.0000
 21
81.0000
 31
0.0000
  0
LINE
  8
105
 10
7.0000
 20
0.0000
 30
0.0000
 11
7.0000
 21
3.5000
 31
0.0000
  0
ARC
  8
105
 10
8.8750
 20
8.0000
 30
0.0000
 40
4.8750
 50
180.0000
 51
247.3801
  0
LINE
  8
105
 10
15.0000
 20
3.0000
 30
0.0000
 11
13.0000
 21
3.0000
 31
0.0000
  0
LINE
  8
105
 10
13.0000
 20
3.0000
 30
0.0000
 11
13.0000
 21
0.0000
 31
0.0000
  0
LINE
  8
105
 10
87.0000
 20
3.0000
 30
0.0000
 11
87.0000
 21
0.0000
 31
0.0000
  0
LINE
  8
105
 10
93.0000
 20
0.0000
 30
0.0000
 11
93.0000
 21
3.5000
 31
0.0000
  0
ARC
  8
105
 10
91.2188
 20
9.0000
 30
0.0000
 40
5.7813
 50
287.9453
 51
0.0000
  0
LINE
  8
105
 10
59.5000
 20
21.0000
 30
0.0000
 11
56.0000
 21
21.0000
 31
0.0000
  0
LINE
  8
105
 10
51.5000
 20
21.0000
 30
0.0000
 11
56.0000
 21
21.0000
 31
0.0000
  0
LINE
  8
105
 10
51.5000
 20
18.0000
 30
0.0000
 11
56.0000
 21
18.0000
 31
0.0000
  0
LINE
  8
105
 10
48.5000
 20
3.0000
 30
0.0000
 11
56.0000
 21
3.0000
 31
0.0000
  0
LINE
  8
105
 10
56.0000
 20
0.0000
 30
0.0000
 11
13.0000
 21
0.0000
 31
0.0000
  0
LINE
  8
105
 10
56.0000
 20
18.0000
 30
0.0000
 11
59.5000
 21
18.0000
 31
0.0000
  0
LINE
  8
105
 10
56.0000
 20
3.0000
 30
0.0000
 11
63.5000
 21
3.0000
 31
0.0000
  0
LINE
  8
105
 10
56.0000
 20
0.0000
 30
0.0000
 11
87.0000
 21
0.0000
 31
0.0000
  0
LINE
  8
105
 10
20.0000
 20
64.0000
 30
0.0000
 11
20.0000
 21
65.0000
 31
0.0000
  0
ARC
  8
105
 10
3.9874
 20
65.0000
 30
0.0000
 40
16.0126
 50
360.0000
 51
67.5586
  0
ARC
  8
105
 10
11.3969
 20
82.9402
 30
0.0000
 40
3.3975
 50
178.9912
 51
247.5586
  0
LINE
  8
105
 10
8.0000
 20
83.0000
 30
0.0000
 11
8.0000
 21
90.0000
 31
0.0000
  0
LINE
  8
105
 10
8.0000
 20
90.0000
 30
0.0000
 11
5.0000
 21
90.0000
 31
0.0000
  0
LINE
  8
105
 10
5.0000
 20
90.0000
 30
0.0000
 11
5.0000
 21
83.0000
 31
0.0000
  0
ARC
  8
105
 10
3.0000
 20
83.0000
 30
0.0000
 40
2.0000
 50
270.0000
 51
0.0000
  0
LINE
  8
105
 10
21.0000
 20
100.0000
 30
0.0000
 11
21.0000
 21
97.0000
 31
0.0000
  0
LINE
  8
105
 10
21.0000
 20
97.0000
 30
0.0000
 11
22.0000
 21
97.0000
 31
0.0000
  0
LINE
  8
105
 10
22.0000
 20
97.0000
 30
0.0000
 11
46.0000
 21
97.0000
 31
0.0000
  0
ARC
  8
105
 10
46.0000
 20
101.2500
 30
0.0000
 40
4.2500
 50
270.0000
 51
298.0725
  0
ARC
  8
105
 10
50.0000
 20
93.7500
 30
0.0000
 40
4.2500
 50
90.0000
 51
118.0725
  0
LINE
  8
105
 10
50.0000
 20
98.0000
 30
0.0000
 11
61.0000
 21
98.0000
 31
0.0000
  0
ARC
  8
105
 10
61.0000
 20
100.6000
 30
0.0000
 40
2.6000
 50
270.0000
 51
292.6199
  0
ARC
  8
105
 10
63.0000
 20
95.8000
 30
0.0000
 40
2.6000
 50
90.0000
 51
112.6198
  0
LINE
  8
105
 10
63.0000
 20
98.4000
 30
0.0000
 11
77.0000
 21
98.4000
 31
0.0000
  0
LINE
  8
105
 10
77.0000
 20
98.4000
 30
0.0000
 11
77.0000
 21
100.0000
 31
0.0000
  0
LINE
  8
105
 10
77.0000
 20
100.0000
 30
0.0000
 11
21.0000
 21
100.0000
 31
0.0000
  0
ENDSEC
  0
EOF
